<svg width="50" height="50" viewBox="0 0 50 50" fill="none" xmlns="http://www.w3.org/2000/svg">
<path d="M25 12.8C23.9611 12.8 23.0718 12.4181 22.3319 11.6544C21.5921 10.8906 21.2222 9.9725 21.2222 8.9C21.2222 7.8275 21.5921 6.90937 22.3319 6.14562C23.0718 5.38187 23.9611 5 25 5C26.0389 5 26.9282 5.38187 27.6681 6.14562C28.4079 6.90937 28.7778 7.8275 28.7778 8.9C28.7778 9.9725 28.4079 10.8906 27.6681 11.6544C26.9282 12.4181 26.0389 12.8 25 12.8ZM19.3333 44V18.65C17.4444 18.4875 15.5241 18.2437 13.5722 17.9187C11.6204 17.5937 9.76296 17.1875 8 16.7L8.94444 12.8C11.4 13.4825 14.013 13.9781 16.7833 14.2869C19.5537 14.5956 22.2926 14.75 25 14.75C27.7074 14.75 30.4463 14.5956 33.2167 14.2869C35.987 13.9781 38.6 13.4825 41.0556 12.8L42 16.7C40.237 17.1875 38.3796 17.5937 36.4278 17.9187C34.4759 18.2437 32.5556 18.4875 30.6667 18.65V44H26.8889V32.3H23.1111V44H19.3333Z" fill="#899C9C"/>
</svg>
