<?xml version="1.0" encoding="utf-8"?>
<!-- Generator: Adobe Illustrator 27.8.0, SVG Export Plug-In . SVG Version: 6.00 Build 0)  -->
<svg version="1.1" id="Ebene_1" xmlns="http://www.w3.org/2000/svg" xmlns:xlink="http://www.w3.org/1999/xlink" x="0px" y="0px"
	 viewBox="0 0 510.2 510.2" style="enable-background:new 0 0 510.2 510.2;" xml:space="preserve">
<style type="text/css">
	.st0{fill:#050505;}
	.st1{fill:#FDFDFD;}
</style>
<path class="st0" d="M255.1,400.9c-62.8,0-125.6,0-188.4,0c-5.2,0-10.3,0.1-15.4-1.1c-11.5-2.7-19.9-12-21-23.8
	c-0.4-4.5-0.6-9-0.6-13.5c0-69.8,0-139.6,0-209.3c0-3.7,0.1-7.3,0.4-11c1.1-16,11.5-26.4,27.5-27.3c3.7-0.2,7.3-0.2,11-0.2
	c124.3,0,248.5,0,372.8,0c5.5,0,11-0.2,16.4,0.9c12.5,2.5,21.3,12.1,22.3,24.8c0.4,4.6,0.5,9.3,0.5,14c0,68.9,0,137.9,0,206.8
	c0,4.3-0.1,8.7-0.5,13c-1,14.9-11.3,25.3-26.2,26.4c-3.6,0.3-7.3,0.3-11,0.3C380.3,400.9,317.7,400.9,255.1,400.9z M255.4,124.2
	C255.4,124.1,255.4,124.1,255.4,124.2c-61.5-0.1-122.9-0.1-184.4-0.1c-3.3,0-6.7,0-10,0.2c-15.4,1-21.4,7.2-21.7,22.6
	c0,1.2,0,2.3,0,3.5c0,71.6,0,143.2,0,214.8c0,20.2,6,26.3,26.2,26.3c126.4,0,252.8,0,379.2,0c20.2,0,26.2-6,26.2-26.2
	c0.1-33.6,0-67.3,0-100.9c0-39,0.1-77.9-0.1-116.9c-0.1-16-6.3-22.3-22.2-23.2c-1-0.1-2-0.1-3-0.1
	C382.4,124.2,318.9,124.2,255.4,124.2z"/>
<path class="st1" d="M255.4,124.2c63.5,0,126.9,0,190.4,0c1,0,2,0,3,0.1c15.9,0.9,22.1,7.2,22.2,23.2c0.1,39,0.1,77.9,0.1,116.9
	c0,33.6,0,67.3,0,100.9c0,20.2-6,26.2-26.2,26.2c-126.4,0-252.8,0-379.2,0c-20.2,0-26.2-6.1-26.2-26.3c0-71.6,0-143.2,0-214.8
	c0-1.2,0-2.3,0-3.5c0.4-15.4,6.3-21.6,21.7-22.6c3.3-0.2,6.7-0.2,10-0.2C132.5,124.1,194,124.1,255.4,124.2
	C255.4,124.1,255.4,124.1,255.4,124.2z M173.8,231.3c-0.7-1.9-2-3.2-3.4-4.3c-9.3-7.8-19.6-8.4-30.4-3.8c-5.1,2.2-9.7,2.4-14.8,0.1
	c-17.1-7.8-33.9,3.7-37,19.7c-4.4,22.4,3.5,41.2,19,57.1c4.3,4.4,9.8,4.5,15.3,2c7.5-3.5,14.9-3.5,22.6-0.2c7.5,3.3,13,1.8,18.4-4.2
	c5.1-5.7,9.1-12.2,12.1-19.3c1.2-2.9,0.8-4.2-2-5.8c-5.4-3.1-9-7.8-10.6-13.9C160.1,246.9,164.7,238.1,173.8,231.3z M206.5,251.9
	c0,13,0,26,0,38.9c0,12.4,0,12.3,12.7,12c2.7-0.1,3.3-0.9,3.2-3.4c-0.1-9.2,0.1-18.3-0.1-27.5c-0.1-3.1,0.9-4,3.9-3.9
	c7,0.2,14,0.2,21-0.1c18.7-0.9,31.2-14.4,31.2-33.3c0-18.9-12.5-32.3-31.3-33c-12-0.4-24,0-35.9-0.3c-3.6-0.1-4.8,0.7-4.8,4.6
	C206.6,221.3,206.5,236.6,206.5,251.9z M330.9,291.1c0.2,4.1-0.9,8.8,0.9,10.9c2,2.3,6.9,0.4,10.5,0.8c2.8,0.3,3.7-0.7,3.7-3.6
	c-0.1-15.5,0-30.9-0.1-46.4c0-7.2-2.5-13.3-8.2-17.9c-11.1-9-33-8.6-43.8,0.7c-2.2,1.9-4,4-5.3,6.5c-4,7.5-3.3,8.8,5,8.8
	c1.3,0,2.7,0,4,0c1.8,0.1,3-0.1,3.8-2.2c3.5-9.6,19.3-9.9,25.5-4.6c2.9,2.5,5.3,9.9,3.6,13.4c-1.6,3.2-5.3,1.8-8,2
	c-8.4,0.7-17,0.4-25.1,3.2c-9.7,3.3-14.8,9.9-14.9,18.9c-0.1,9.6,5.6,17.4,15.3,20.3C310.9,305.9,322.1,302.7,330.9,291.1z
	 M352.5,229.2c-0.3,2.1,0.7,3.5,1.2,5c7.8,21.4,15.5,42.7,23.3,64.1c3.6,10-2.9,19.8-13.5,19.4c-4.1-0.1-4.9,1.2-4.4,4.7
	c0.2,1.1,0.2,2.4,0,3.5c-0.6,3.3,1.1,4.2,4.1,4.4c14.2,1.1,23.5-4.2,28.9-18c6.4-16.4,12.1-33,18.1-49.6c4-11,7.9-22.1,12.1-33.6
	c-4.6,0-8.6,0.2-12.5-0.1c-3-0.2-4,1-4.8,3.6c-3.6,11.9-7.3,23.8-11.1,35.7c-2,6.5-4.1,13-6.2,19.6c-1.6-0.8-1.5-1.9-1.8-2.8
	c-5.4-17.3-10.8-34.5-16.2-51.8c-0.6-1.9-0.6-4.4-3.9-4.2C361.5,229.4,357,229.2,352.5,229.2z M154.1,196.3c0.4-2.7-1.2-2.7-3.3-2.2
	c-9.6,2-17.5,10.7-19.1,20.7c-0.6,3.9,0.8,4.6,4.2,4.1C145.2,217.2,154.3,206.2,154.1,196.3z"/>
<path class="st0" d="M173.8,231.3c-9.2,6.9-13.7,15.6-10.7,27.3c1.6,6.1,5.2,10.8,10.6,13.9c2.8,1.6,3.2,2.9,2,5.8
	c-3,7.1-7,13.6-12.1,19.3c-5.4,6.1-10.9,7.5-18.4,4.2c-7.7-3.4-15.1-3.3-22.6,0.2c-5.5,2.6-11,2.4-15.3-2
	c-15.6-15.9-23.4-34.7-19-57.1c3.2-16,19.9-27.6,37-19.7c5.1,2.3,9.7,2.1,14.8-0.1c10.7-4.6,21.1-4,30.4,3.8
	C171.9,228.1,173.2,229.4,173.8,231.3z"/>
<path class="st0" d="M206.5,251.9c0-15.3,0.2-30.6-0.1-45.9c-0.1-3.9,1.1-4.7,4.8-4.6c12,0.3,24-0.1,35.9,0.3
	c18.8,0.7,31.3,14,31.3,33c0,18.8-12.6,32.3-31.2,33.3c-7,0.3-14,0.3-21,0.1c-3.1-0.1-4,0.8-3.9,3.9c0.2,9.1,0,18.3,0.1,27.5
	c0,2.5-0.5,3.3-3.2,3.4c-12.7,0.3-12.7,0.4-12.7-12C206.5,277.9,206.5,264.9,206.5,251.9z M222.3,234.6c0,5.7,0.1,11.3,0,17
	c0,2.1,0.1,3.5,2.8,3.4c6.5-0.2,13,0.2,19.4-0.3c10.3-0.8,17-7.7,17.6-17.6c0.7-12-4.4-19.4-15.2-21.6c-7.4-1.5-14.9-0.3-22.4-0.6
	c-2.3-0.1-2.2,1.3-2.2,2.9C222.4,223.3,222.3,228.9,222.3,234.6z"/>
<path class="st0" d="M330.9,291.1c-8.8,11.6-20,14.9-33.2,10.9c-9.8-2.9-15.4-10.7-15.3-20.3c0.1-9.1,5.2-15.6,14.9-18.9
	c8.2-2.8,16.7-2.5,25.1-3.2c2.7-0.2,6.4,1.2,8-2c1.7-3.4-0.7-10.9-3.6-13.4c-6.2-5.3-22-5-25.5,4.6c-0.8,2.1-2.1,2.3-3.8,2.2
	c-1.3-0.1-2.7,0-4,0c-8.2,0-9-1.3-5-8.8c1.3-2.5,3.2-4.7,5.3-6.5c10.9-9.3,32.7-9.7,43.8-0.7c5.7,4.6,8.2,10.8,8.2,17.9
	c0.1,15.5,0,31,0.1,46.4c0,2.9-0.8,3.9-3.7,3.6c-3.6-0.4-8.4,1.5-10.5-0.8C330,299.9,331.1,295.2,330.9,291.1z M323.6,269.9
	c-5.6,1-12.6,0-19.1,2.5c-3.4,1.4-6,3.5-6.4,7.5c-0.4,3.6,0.5,6.7,3.6,8.7c6.1,4,12.6,3.7,19,1c5.9-2.5,9.4-7.1,9.8-13.8
	C330.8,269.6,330.9,269.6,323.6,269.9z"/>
<path class="st0" d="M352.5,229.2c4.5,0,8.9,0.2,13.4-0.1c3.3-0.2,3.3,2.3,3.9,4.2c5.5,17.3,10.8,34.5,16.2,51.8
	c0.3,0.9,0.2,2,1.8,2.8c2.1-6.6,4.2-13.1,6.2-19.6c3.7-11.9,7.5-23.8,11.1-35.7c0.8-2.6,1.8-3.8,4.8-3.6c3.9,0.3,7.9,0.1,12.5,0.1
	c-4.2,11.5-8.1,22.6-12.1,33.6c-6,16.5-11.7,33.2-18.1,49.6c-5.4,13.8-14.6,19-28.9,18c-3-0.2-4.7-1-4.1-4.4c0.2-1.1,0.2-2.3,0-3.5
	c-0.5-3.4,0.3-4.8,4.4-4.7c10.5,0.4,17.1-9.4,13.5-19.4c-7.8-21.4-15.6-42.7-23.3-64.1C353.2,232.7,352.2,231.3,352.5,229.2z"/>
<path class="st0" d="M154.1,196.3c0.2,9.9-8.9,20.9-18.1,22.5c-3.4,0.6-4.9-0.1-4.2-4.1c1.6-9.9,9.5-18.7,19.1-20.7
	C153,193.6,154.6,193.6,154.1,196.3z"/>
<path class="st1" d="M222.3,234.6c0-5.7,0-11.3,0-17c0-1.6-0.1-3,2.2-2.9c7.5,0.3,15-0.9,22.4,0.6c10.9,2.2,15.9,9.7,15.2,21.6
	c-0.6,9.9-7.3,16.9-17.6,17.6c-6.5,0.5-13,0.1-19.4,0.3c-2.7,0.1-2.9-1.3-2.8-3.4C222.4,245.9,222.3,240.2,222.3,234.6z"/>
<path class="st1" d="M323.6,269.9c7.3-0.3,7.2-0.4,6.8,5.9c-0.4,6.7-3.9,11.2-9.8,13.8c-6.4,2.7-12.9,3-19-1c-3.1-2-4-5.2-3.6-8.7
	c0.5-3.9,3-6.1,6.4-7.5C311,269.9,318,270.9,323.6,269.9z"/>
</svg>
