<svg width="50" height="50" viewBox="0 0 50 50" fill="none" xmlns="http://www.w3.org/2000/svg">

<g clip-path="url(#clip0_770_63)">
<path d="M31.9865 35.2849C30.091 36.4441 27.8509 37.0881 25.4814 37.0881C20.2256 37.0881 15.7022 33.868 13.7636 29.3169C13.1605 27.8571 12.8158 26.2256 12.8158 24.5081C12.8158 22.7908 13.1605 21.1592 13.7636 19.6565C14.7975 17.1663 16.65 15.1054 18.9332 13.6885L15.9607 8.75098C10.5757 11.9711 7 17.8102 7 24.5081C7 26.9985 7.51696 29.3599 8.42165 31.5066C11.1788 38.2045 17.7701 42.8844 25.4814 42.8844C28.9709 42.8844 32.245 41.8969 35.0022 40.2224C38.3624 38.2045 40.9903 35.199 42.498 31.5496L37.1562 29.3169C36.1222 31.8071 34.2698 33.911 31.9865 35.2849Z" fill="black"/>
<path d="M25.4812 6.08398V11.8802C30.7801 11.8802 35.2605 15.1004 37.156 19.6944L42.498 17.4618C39.7408 10.7639 33.1495 6.08398 25.4812 6.08398Z" fill="#D5FD72"/>
</g>
<defs>
<clipPath id="clip0_770_63">
<rect width="36" height="37" fill="white" transform="translate(7 6)"/>
</clipPath>
</defs>
</svg>
