<svg width="50" height="50" viewBox="0 0 50 50" fill="none" xmlns="http://www.w3.org/2000/svg">

<path d="M15.4167 43.6667V37H14.1667C13 37 12.0139 36.5972 11.2083 35.7917C10.4028 34.9861 10 34 10 32.8333C10 31.6667 10.4028 30.6806 11.2083 29.875C12.0139 29.0694 13 28.6667 14.1667 28.6667H15.4167V27H10V18.6667H15.4167V17H14.1667C13 17 12.0139 16.5972 11.2083 15.7917C10.4028 14.9861 10 14 10 12.8333C10 11.6667 10.4028 10.6806 11.2083 9.875C12.0139 9.06944 13 8.66667 14.1667 8.66667H15.4167V7H17.9167V8.66667H19.1667C20.3333 8.66667 21.3194 9.06944 22.125 9.875C22.9306 10.6806 23.3333 11.6667 23.3333 12.8333C23.3333 14 22.9306 14.9861 22.125 15.7917C21.3194 16.5972 20.3333 17 19.1667 17H17.9167V18.6667H23.3333V27H17.9167V28.6667H19.1667C20.3333 28.6667 21.3194 29.0694 22.125 29.875C22.9306 30.6806 23.3333 31.6667 23.3333 32.8333C23.3333 34 22.9306 34.9861 22.125 35.7917C21.3194 36.5972 20.3333 37 19.1667 37H17.9167V43.6667H15.4167ZM32.0833 43.6667V37H30.8333C29.6667 37 28.6806 36.5972 27.875 35.7917C27.0694 34.9861 26.6667 34 26.6667 32.8333C26.6667 31.6667 27.0694 30.6806 27.875 29.875C28.6806 29.0694 29.6667 28.6667 30.8333 28.6667H32.0833V27H26.6667V18.6667H32.0833V17H30.8333C29.6667 17 28.6806 16.5972 27.875 15.7917C27.0694 14.9861 26.6667 14 26.6667 12.8333C26.6667 11.6667 27.0694 10.6806 27.875 9.875C28.6806 9.06944 29.6667 8.66667 30.8333 8.66667H32.0833V7H34.5833V8.66667H35.8333C37 8.66667 37.9861 9.06944 38.7917 9.875C39.5972 10.6806 40 11.6667 40 12.8333C40 14 39.5972 14.9861 38.7917 15.7917C37.9861 16.5972 37 17 35.8333 17H34.5833V18.6667H40V27H34.5833V28.6667H35.8333C37 28.6667 37.9861 29.0694 38.7917 29.875C39.5972 30.6806 40 31.6667 40 32.8333C40 34 39.5972 34.9861 38.7917 35.7917C37.9861 36.5972 37 37 35.8333 37H34.5833V43.6667H32.0833ZM14.1667 13.6667H19.1667C19.3889 13.6667 19.5833 13.5833 19.75 13.4167C19.9167 13.25 20 13.0556 20 12.8333C20 12.6111 19.9167 12.4167 19.75 12.25C19.5833 12.0833 19.3889 12 19.1667 12H14.1667C13.9444 12 13.75 12.0833 13.5833 12.25C13.4167 12.4167 13.3333 12.6111 13.3333 12.8333C13.3333 13.0556 13.4167 13.25 13.5833 13.4167C13.75 13.5833 13.9444 13.6667 14.1667 13.6667ZM30.8333 13.6667H35.8333C36.0556 13.6667 36.25 13.5833 36.4167 13.4167C36.5833 13.25 36.6667 13.0556 36.6667 12.8333C36.6667 12.6111 36.5833 12.4167 36.4167 12.25C36.25 12.0833 36.0556 12 35.8333 12H30.8333C30.6111 12 30.4167 12.0833 30.25 12.25C30.0833 12.4167 30 12.6111 30 12.8333C30 13.0556 30.0833 13.25 30.25 13.4167C30.4167 13.5833 30.6111 13.6667 30.8333 13.6667ZM13.3333 23.6667H20V22H13.3333V23.6667ZM30 23.6667H36.6667V22H30V23.6667ZM14.1667 33.6667H19.1667C19.3889 33.6667 19.5833 33.5833 19.75 33.4167C19.9167 33.25 20 33.0556 20 32.8333C20 32.6111 19.9167 32.4167 19.75 32.25C19.5833 32.0833 19.3889 32 19.1667 32H14.1667C13.9444 32 13.75 32.0833 13.5833 32.25C13.4167 32.4167 13.3333 32.6111 13.3333 32.8333C13.3333 33.0556 13.4167 33.25 13.5833 33.4167C13.75 33.5833 13.9444 33.6667 14.1667 33.6667ZM30.8333 33.6667H35.8333C36.0556 33.6667 36.25 33.5833 36.4167 33.4167C36.5833 33.25 36.6667 33.0556 36.6667 32.8333C36.6667 32.6111 36.5833 32.4167 36.4167 32.25C36.25 32.0833 36.0556 32 35.8333 32H30.8333C30.6111 32 30.4167 32.0833 30.25 32.25C30.0833 32.4167 30 32.6111 30 32.8333C30 33.0556 30.0833 33.25 30.25 33.4167C30.4167 33.5833 30.6111 33.6667 30.8333 33.6667Z" fill="#899C9C"/>
</svg>
