<svg width="50" height="50" viewBox="0 0 50 50" fill="none" xmlns="http://www.w3.org/2000/svg">

<path d="M22.6364 45V40.4118H17.9091V35.8235H22.6364V31.0059C19.5242 30.4706 16.9735 29.0272 14.9841 26.6757C12.9947 24.3243 12 21.6 12 18.5029C12 15.0235 13.2705 12.0699 15.8114 9.64191C18.3523 7.21397 21.4152 6 25 6C28.5848 6 31.6477 7.21397 34.1886 9.64191C36.7295 12.0699 38 15.0235 38 18.5029C38 21.6 37.0053 24.3243 35.0159 26.6757C33.0265 29.0272 30.4758 30.4706 27.3636 31.0059V35.8235H32.0909V40.4118H27.3636V45H22.6364ZM25 26.6471C27.2848 26.6471 29.2348 25.8632 30.85 24.2956C32.4652 22.7279 33.2727 20.8353 33.2727 18.6176C33.2727 16.4 32.4652 14.5074 30.85 12.9397C29.2348 11.3721 27.2848 10.5882 25 10.5882C22.7152 10.5882 20.7652 11.3721 19.15 12.9397C17.5348 14.5074 16.7273 16.4 16.7273 18.6176C16.7273 20.8353 17.5348 22.7279 19.15 24.2956C20.7652 25.8632 22.7152 26.6471 25 26.6471Z" fill="#899C9C"/>
</svg>
