<svg width="990" height="990" viewBox="0 0 990 990" fill="none" xmlns="http://www.w3.org/2000/svg">
    <path d="M734.55 184.36C731.25 184.36 727.951 183.535 725.064 181.885C645.876 141.054 577.412 123.731 495.337 123.731C413.674 123.731 336.136 143.116 265.609 181.885C255.711 187.247 243.338 183.535 237.564 173.636C232.202 163.738 235.914 150.952 245.812 145.591C322.526 103.935 406.663 82.4878 495.337 82.4878C583.186 82.4878 659.899 101.872 744.036 145.178C754.347 150.54 758.059 162.913 752.697 172.811C748.985 180.235 741.974 184.36 734.55 184.36ZM144.353 400.889C140.228 400.889 136.104 399.652 132.392 397.177C122.906 390.578 120.844 377.793 127.443 368.307C168.274 310.565 220.241 265.197 282.107 233.44C411.612 166.625 577.412 166.212 707.329 233.027C769.195 264.785 821.162 309.741 861.993 367.069C868.592 376.143 866.53 389.341 857.044 395.94C847.558 402.539 834.772 400.477 828.173 390.991C791.054 339.024 744.036 298.192 688.357 269.734C569.988 209.106 418.623 209.106 300.666 270.147C244.575 299.017 197.557 340.261 160.438 392.228C157.138 398.002 150.952 400.889 144.353 400.889ZM402.126 898.7C396.764 898.7 391.403 896.638 387.691 892.514C351.809 856.632 332.424 833.535 304.791 783.631C276.333 732.901 261.485 671.035 261.485 604.633C261.485 482.139 366.244 382.329 494.924 382.329C623.604 382.329 728.363 482.139 728.363 604.633C728.363 616.181 719.29 625.255 707.742 625.255C696.193 625.255 687.12 616.181 687.12 604.633C687.12 504.823 600.92 423.573 494.924 423.573C388.928 423.573 302.729 504.823 302.729 604.633C302.729 664.024 315.927 718.878 341.085 763.421C367.481 810.851 385.628 831.061 417.386 863.231C425.222 871.48 425.222 884.265 417.386 892.514C412.849 896.638 407.488 898.7 402.126 898.7ZM697.843 822.4C648.763 822.4 605.457 810.026 569.988 785.693C508.535 744.037 471.828 676.397 471.828 604.633C471.828 593.085 480.901 584.011 492.45 584.011C503.998 584.011 513.071 593.085 513.071 604.633C513.071 662.786 542.767 717.641 593.084 751.46C622.367 771.257 656.599 780.743 697.843 780.743C707.742 780.743 724.239 779.506 740.737 776.619C751.872 774.557 762.596 781.981 764.658 793.529C766.72 804.665 759.296 815.388 747.748 817.45C724.239 821.987 703.617 822.4 697.843 822.4ZM614.943 907.362C613.294 907.362 611.231 906.949 609.582 906.537C544.004 888.389 501.111 864.056 456.155 819.925C398.414 762.596 366.656 686.295 366.656 604.633C366.656 537.818 423.573 483.376 493.687 483.376C563.801 483.376 620.717 537.818 620.717 604.633C620.717 648.764 659.074 684.646 706.504 684.646C753.935 684.646 792.291 648.764 792.291 604.633C792.291 449.144 658.249 322.939 493.274 322.939C376.142 322.939 268.909 388.104 220.654 489.151C204.569 522.558 196.32 561.739 196.32 604.633C196.32 636.803 199.207 687.533 223.953 753.523C228.078 764.246 222.716 776.207 211.992 779.919C201.269 784.043 189.308 778.269 185.597 767.958C165.387 713.929 155.489 660.312 155.489 604.633C155.489 555.14 164.975 510.185 183.534 471.003C238.388 355.933 360.057 281.282 493.274 281.282C680.933 281.282 833.535 426.048 833.535 604.22C833.535 671.035 776.619 725.477 706.504 725.477C636.39 725.477 579.474 671.035 579.474 604.22C579.474 560.09 541.117 524.208 493.687 524.208C446.257 524.208 407.9 560.09 407.9 604.22C407.9 674.747 435.121 740.737 485.026 790.229C524.207 828.999 561.739 850.445 619.893 866.53C631.028 869.417 637.215 880.966 634.328 891.689C632.266 901.175 623.604 907.362 614.943 907.362Z" fill="#F5F5F5"/>
</svg>
