<svg width="50" height="50" viewBox="0 0 50 50" fill="none" xmlns="http://www.w3.org/2000/svg">

<path d="M8.82666 16.6971C8.98881 16.3135 9.19841 15.9575 9.41197 15.6036C11.8699 11.5222 15.356 8.73409 19.8981 7.2807C20.8829 6.96629 21.8913 6.75866 22.9176 6.61629C24.0428 6.46205 25.1738 6.41855 26.3069 6.47589C30.6275 6.68945 34.4043 8.23183 37.6156 11.1406C37.8075 11.3146 37.8015 11.2731 37.6275 11.4451C35.9566 13.118 34.2857 14.7889 32.6128 16.4598C32.6029 16.4697 32.595 16.4776 32.5851 16.4875C32.4704 16.6002 32.4704 16.6002 32.3558 16.4954C31.986 16.1573 31.5945 15.8468 31.1792 15.566C29.9334 14.7256 28.5651 14.1976 27.08 13.9663C26.2555 13.8378 25.4289 13.8041 24.5984 13.8654C22.8702 13.992 21.2606 14.5101 19.7874 15.4276C17.5193 16.8395 15.9473 18.8149 15.0397 21.3242C15.0238 21.3677 15.006 21.4092 14.9882 21.4527C14.9428 21.4409 14.9072 21.4092 14.8716 21.3815C14.6066 21.1759 14.3416 20.9702 14.0767 20.7666C13.2402 20.118 12.4038 19.4714 11.5693 18.8228C10.6538 18.1149 9.74022 17.407 8.82666 16.6971Z" fill="#E84336"/>
<path d="M37.6354 39.0577C37.2518 39.4374 36.8287 39.7735 36.3976 40.0978C34.4578 41.5532 32.2905 42.5103 29.9335 43.0501C28.0925 43.4713 26.2258 43.6275 24.3453 43.5148C20.0069 43.2557 16.2123 41.6679 12.9713 38.769C11.2905 37.2662 9.94392 35.5004 8.90578 33.4992C8.87216 33.436 8.82471 33.3786 8.82471 33.3015C8.88403 33.26 8.94335 33.2204 9.0007 33.1749C10.6676 31.8778 12.3346 30.5806 14.0035 29.2854C14.3258 29.0362 14.6402 28.7772 14.9804 28.5498C15.103 28.8622 15.2137 29.1786 15.3521 29.4831C16.6928 32.4295 18.858 34.4998 21.9191 35.5973C23.2993 36.0916 24.7289 36.2498 26.1922 36.1529C27.4498 36.0699 28.6659 35.8207 29.8326 35.3461C30.4061 35.1128 30.9538 34.8281 31.4739 34.4919C31.5292 34.4563 31.5767 34.4108 31.6459 34.399C31.6696 34.4207 31.6934 34.4444 31.7191 34.4642C32.9708 35.4351 34.2224 36.404 35.4722 37.3769C36.1959 37.9326 36.9137 38.4961 37.6354 39.0577Z" fill="#36A954"/>
<path d="M37.6354 39.0577C36.9156 38.4962 36.1958 37.9346 35.4741 37.373C34.2244 36.4021 32.9727 35.4312 31.721 34.4603C31.6953 34.4405 31.6715 34.4168 31.6478 34.395C31.9069 34.1815 32.1876 33.9976 32.4427 33.7801C33.9456 32.5046 34.9026 30.9029 35.3179 28.9769C35.3495 28.8267 35.3475 28.8227 35.1913 28.8188C35.1379 28.8168 35.0865 28.8188 35.0331 28.8188C31.8989 28.8188 28.7648 28.8188 25.6306 28.8188C25.3478 28.8188 25.3755 28.8484 25.3755 28.5676C25.3755 26.3351 25.3755 24.1027 25.3755 21.8721C25.3755 21.6111 25.3518 21.6349 25.6049 21.6349C31.2741 21.6349 36.9433 21.6349 42.6125 21.6349C42.8715 21.6349 42.83 21.5953 42.8755 21.8642C43.0001 22.6176 43.0871 23.375 43.1326 24.1363C43.18 24.9193 43.1859 25.7024 43.1504 26.4854C43.0436 28.7693 42.6066 30.986 41.7385 33.1097C40.821 35.3541 39.4981 37.3216 37.7283 38.9826C37.6987 39.0123 37.665 39.034 37.6354 39.0577Z" fill="#517CBE"/>
<path d="M14.9804 28.5478C14.6403 28.7732 14.3259 29.0342 14.0036 29.2834C12.3346 30.5786 10.6697 31.8758 9.00075 33.1729C8.94341 33.2165 8.88408 33.258 8.82476 33.2995C8.5677 32.8467 8.36601 32.3681 8.17024 31.8876C7.61459 30.5232 7.23295 29.1114 7.01742 27.654C6.88098 26.7345 6.8177 25.8091 6.82561 24.8797C6.85132 22.0797 7.47618 19.4181 8.71007 16.9029C8.74369 16.8337 8.76742 16.7566 8.82476 16.6992C9.73832 17.4071 10.6519 18.115 11.5674 18.8229C12.4039 19.4715 13.2403 20.1181 14.0748 20.7667C14.3397 20.9724 14.6047 21.1761 14.8697 21.3817C14.9053 21.4094 14.9409 21.441 14.9863 21.4529C14.8262 21.9868 14.67 22.5207 14.575 23.0724C14.4208 23.9484 14.3615 24.8283 14.4248 25.7181C14.49 26.6396 14.6739 27.5354 14.9527 28.4153C14.9666 28.4568 14.9903 28.4984 14.9804 28.5478Z" fill="#F9BC0D"/>
</svg>
