<svg width="50" height="50" viewBox="0 0 50 50" fill="none" xmlns="http://www.w3.org/2000/svg">

<path d="M12.8095 39V35.1333H16.7143V27.4L5 10H32.3333L20.619 27.4V35.1333H24.5238V39H12.8095ZM14.5667 17.7333H22.7667L25.5 13.8667H11.8333L14.5667 17.7333ZM34.2857 39C32.6587 39 31.2758 38.4361 30.1369 37.3083C28.998 36.1806 28.4286 34.8111 28.4286 33.2C28.4286 31.5889 28.998 30.2194 30.1369 29.0917C31.2758 27.9639 32.6587 27.4 34.2857 27.4C34.6437 27.4 34.9853 27.4242 35.3107 27.4725C35.6361 27.5208 35.9452 27.6256 36.2381 27.7867V10H46V15.8H40.1429V33.2C40.1429 34.8111 39.5734 36.1806 38.4345 37.3083C37.2956 38.4361 35.9127 39 34.2857 39Z" fill="#899C9C"/>
</svg>
