<svg width="32" height="33" viewBox="0 0 32 33" fill="none" xmlns="http://www.w3.org/2000/svg">
    <path d="M22.2102 26.119C20.5253 27.1529 18.5341 27.7273 16.4279 27.7273C11.7561 27.7273 7.73529 24.8553 6.01208 20.7962C5.47597 19.4942 5.16962 18.0391 5.16962 16.5073C5.16962 14.9756 5.47597 13.5204 6.01208 12.1802C6.93112 9.95914 8.57775 8.12105 10.6073 6.85737L7.96505 2.45361C3.17836 5.32563 0 10.5335 0 16.5073C0 18.7284 0.459522 20.8345 1.26369 22.7492C3.71447 28.723 9.57338 32.8969 16.4279 32.8969C19.5297 32.8969 22.44 32.0162 24.8908 30.5227C27.8777 28.723 30.2136 26.0424 31.5538 22.7875L26.8055 20.7962C25.8864 23.0172 24.2398 24.8936 22.2102 26.119Z" fill="#899C9C"/>
    <path d="M16.4277 0.0749512V5.24457C21.1378 5.24457 25.1204 8.11659 26.8053 12.214L31.5537 10.2227C29.1029 4.24894 23.244 0.0749512 16.4277 0.0749512Z" fill="#899C9C"/>
</svg>
