<svg width="50" height="50" viewBox="0 0 50 50" fill="none" xmlns="http://www.w3.org/2000/svg">

<path d="M33.1691 45.6667C30.8427 45.6667 29.0805 45.276 27.8826 44.4948C26.6847 43.7135 25.6691 42.8889 24.8357 42.0208C24.176 41.3264 23.5423 40.7188 22.9347 40.1979C22.3271 39.6771 21.5545 39.4167 20.617 39.4167C19.0545 39.4167 17.3184 39.1476 15.4087 38.6094C13.4989 38.0712 11.7021 37.1858 10.018 35.9531C8.33401 34.7205 6.91908 33.1146 5.77324 31.1354C4.62741 29.1563 4.03713 26.7257 4.00241 23.8438C3.93296 18.0451 5.36526 13.2882 8.29928 9.57292C11.2333 5.85764 15.3392 4 20.617 4C23.0823 4 25.1656 4.3559 26.867 5.06771C28.5684 5.77951 30.0354 6.67361 31.268 7.75C32.5007 8.82639 33.5423 10.0156 34.393 11.3177C35.2437 12.6198 36.051 13.8785 36.8149 15.0938C37.2316 15.7882 37.6482 16.4219 38.0649 16.9948C38.4816 17.5677 38.933 18.0972 39.4191 18.5833C41.5024 20.6667 43.0649 22.4896 44.1066 24.0521C45.1482 25.6146 45.6691 27.9757 45.6691 31.1354C45.6691 35.3021 44.3757 38.7656 41.7889 41.526C39.2021 44.2865 36.3288 45.6667 33.1691 45.6667ZM33.1691 41.5C35.1482 41.5 37.0319 40.5191 38.8201 38.5573C40.6083 36.5955 41.5024 34.1215 41.5024 31.1354C41.5024 28.8438 41.1639 27.1597 40.4868 26.0833C39.8097 25.0069 38.4816 23.4792 36.5024 21.5C35.7732 20.8056 35.1222 20.033 34.5493 19.1823C33.9764 18.3316 33.3948 17.4549 32.8045 16.5521C31.3809 14.2951 29.8705 12.3333 28.2732 10.6667C26.676 9 24.1239 8.16667 20.617 8.16667C16.1378 8.16667 12.926 9.77257 10.9816 12.9844C9.03713 16.1962 8.09963 19.7986 8.16908 23.7917C8.2038 26.1181 8.70727 28.0278 9.67949 29.5208C10.6517 31.0139 11.8062 32.1858 13.143 33.0365C14.4798 33.8872 15.8427 34.4688 17.2316 34.7813C18.6205 35.0938 19.7489 35.25 20.617 35.25C22.3878 35.25 23.8114 35.6753 24.8878 36.526C25.9642 37.3767 26.8496 38.1667 27.5441 38.8958C28.308 39.6944 29.0458 40.3281 29.7576 40.7969C30.4694 41.2656 31.6066 41.5 33.1691 41.5ZM24.8357 32.125C26.8496 32.125 28.5684 31.4132 29.992 29.9896C31.4156 28.566 32.1274 26.8472 32.1274 24.8333C32.1274 22.8194 31.4156 21.1007 29.992 19.6771C28.5684 18.2535 26.8496 17.5417 24.8357 17.5417C22.8219 17.5417 21.1031 18.2535 19.6795 19.6771C18.2559 21.1007 17.5441 22.8194 17.5441 24.8333C17.5441 26.8472 18.2559 28.566 19.6795 29.9896C21.1031 31.4132 22.8219 32.125 24.8357 32.125Z" fill="#899C9C"/>
</svg>
