<svg width="50" height="50" viewBox="0 0 50 50" fill="none" xmlns="http://www.w3.org/2000/svg">

<path d="M45 5V20H40V13.5625L30.0625 23.4375C30.8542 24.6042 31.4583 25.8438 31.875 27.1562C32.2917 28.4688 32.5 29.8333 32.5 31.25C32.5 35.0833 31.1667 38.3333 28.5 41C25.8333 43.6667 22.5833 45 18.75 45C14.9167 45 11.6667 43.6667 9 41C6.33333 38.3333 5 35.0833 5 31.25C5 27.4167 6.33333 24.1667 9 21.5C11.6667 18.8333 14.9167 17.5 18.75 17.5C20.125 17.5 21.4792 17.6979 22.8125 18.0938C24.1458 18.4896 25.375 19.1042 26.5 19.9375L36.4375 10H30V5H45ZM18.75 22.5C16.3333 22.5 14.2708 23.3542 12.5625 25.0625C10.8542 26.7708 10 28.8333 10 31.25C10 33.6667 10.8542 35.7292 12.5625 37.4375C14.2708 39.1458 16.3333 40 18.75 40C21.1667 40 23.2292 39.1458 24.9375 37.4375C26.6458 35.7292 27.5 33.6667 27.5 31.25C27.5 28.8333 26.6458 26.7708 24.9375 25.0625C23.2292 23.3542 21.1667 22.5 18.75 22.5Z" fill="#899C9C"/>
</svg>
