<svg width="50" height="50" viewBox="0 0 50 50" fill="none" xmlns="http://www.w3.org/2000/svg">

<path d="M12.25 39.25C11.3562 39.25 10.5911 38.9318 9.95469 38.2953C9.31823 37.6589 9 36.8937 9 36V31.125H41.5V36C41.5 36.8937 41.1818 37.6589 40.5453 38.2953C39.9089 38.9318 39.1437 39.25 38.25 39.25H12.25ZM12.25 34.375V36H38.25V34.375H12.25ZM25.25 27.0625C24.275 27.0625 23.5031 27.3333 22.9344 27.875C22.3656 28.4167 21.3229 28.6875 19.8062 28.6875C18.2896 28.6875 17.2604 28.4167 16.7187 27.875C16.1771 27.3333 15.4187 27.0625 14.4437 27.0625C13.4687 27.0625 12.6969 27.3333 12.1281 27.875C11.5594 28.4167 10.5167 28.6875 9 28.6875V25.4375C9.975 25.4375 10.7469 25.1667 11.3156 24.625C11.8844 24.0833 12.9271 23.8125 14.4437 23.8125C15.9604 23.8125 16.9896 24.0833 17.5312 24.625C18.0729 25.1667 18.8312 25.4375 19.8062 25.4375C20.7812 25.4375 21.5531 25.1667 22.1219 24.625C22.6906 24.0833 23.7333 23.8125 25.25 23.8125C26.7667 23.8125 27.8094 24.0833 28.3781 24.625C28.9469 25.1667 29.7187 25.4375 30.6937 25.4375C31.6687 25.4375 32.4271 25.1667 32.9687 24.625C33.5104 24.0833 34.5396 23.8125 36.0562 23.8125C37.5729 23.8125 38.6427 24.0833 39.2656 24.625C39.8885 25.1667 40.6333 25.4375 41.5 25.4375V28.6875C39.9833 28.6875 38.9677 28.4167 38.4531 27.875C37.9385 27.3333 37.1937 27.0625 36.2187 27.0625C35.2437 27.0625 34.4583 27.3333 33.8625 27.875C33.2667 28.4167 32.2104 28.6875 30.6937 28.6875C29.1771 28.6875 28.1344 28.4167 27.5656 27.875C26.9969 27.3333 26.225 27.0625 25.25 27.0625ZM9 21.375V19.75C9 16.6354 10.4693 14.2318 13.4078 12.5391C16.3464 10.8464 20.2937 10 25.25 10C30.2062 10 34.1536 10.8464 37.0922 12.5391C40.0307 14.2318 41.5 16.6354 41.5 19.75V21.375H9ZM25.25 13.25C21.8917 13.25 19.0818 13.6698 16.8203 14.5094C14.5589 15.349 13.1167 16.5542 12.4937 18.125H38.0062C37.3833 16.5542 35.9411 15.349 33.6797 14.5094C31.4182 13.6698 28.6083 13.25 25.25 13.25Z" fill="#899C9C"/>
</svg>
