<svg width="50" height="50" viewBox="0 0 50 50" fill="none" xmlns="http://www.w3.org/2000/svg">

<path d="M24.5 30.4545C26.2952 30.4545 27.8274 29.8333 29.0964 28.5909C30.3655 27.3485 31 25.8485 31 24.0909C31 22.3333 30.3655 20.8333 29.0964 19.5909C27.8274 18.3485 26.2952 17.7273 24.5 17.7273C22.7048 17.7273 21.1726 18.3485 19.9036 19.5909C18.6345 20.8333 18 22.3333 18 24.0909C18 25.8485 18.6345 27.3485 19.9036 28.5909C21.1726 29.8333 22.7048 30.4545 24.5 30.4545ZM22.6429 45V41.3636H18.9286V37.7273H22.6429V33.9091C20.2286 33.4848 18.2321 32.3485 16.6536 30.5C15.075 28.6515 14.2857 26.5152 14.2857 24.0909C14.2857 23.0909 14.4327 22.1061 14.7268 21.1364C15.0208 20.1667 15.4619 19.2727 16.05 18.4545L14.8429 17.2727L12.2429 19.8182L9.64286 17.2727L12.2429 14.6818L8.71429 11.2273V15.9091H5V5H16.1429V8.63636H11.3607L14.8893 12.0909L17.5357 9.54545L20.1357 12.0909L17.5357 14.6818L18.7429 15.8636C19.5786 15.2576 20.4917 14.8106 21.4821 14.5227C22.4726 14.2348 23.4786 14.0909 24.5 14.0909C25.5214 14.0909 26.5274 14.2348 27.5179 14.5227C28.5083 14.8106 29.4214 15.2576 30.2571 15.8636L37.6393 8.63636H32.8571V5H44V15.9091H40.2857V11.2273L32.9036 18.4091C33.4917 19.2576 33.9405 20.1591 34.25 21.1136C34.5595 22.0682 34.7143 23.0606 34.7143 24.0909C34.7143 26.5152 33.925 28.6515 32.3464 30.5C30.7679 32.3485 28.7714 33.4848 26.3571 33.9091V37.7273H30.0714V41.3636H26.3571V45H22.6429Z" fill="#899C9C"/>
</svg>
