<svg width="50" height="50" viewBox="0 0 50 50" fill="none" xmlns="http://www.w3.org/2000/svg">

<path d="M24.5 30.4545C22.7048 30.4545 21.1726 29.8333 19.9036 28.5909C18.6345 27.3485 18 25.8485 18 24.0909C18 22.3333 18.6345 20.8333 19.9036 19.5909C21.1726 18.3485 22.7048 17.7273 24.5 17.7273C26.2952 17.7273 27.8274 18.3485 29.0964 19.5909C30.3655 20.8333 31 22.3333 31 24.0909C31 25.8485 30.3655 27.3485 29.0964 28.5909C27.8274 29.8333 26.2952 30.4545 24.5 30.4545ZM26.3571 45V41.3636H30.0714V37.7273H26.3571V33.9091C28.7714 33.4848 30.7679 32.3485 32.3464 30.5C33.925 28.6515 34.7143 26.5152 34.7143 24.0909C34.7143 23.0909 34.5673 22.1061 34.2732 21.1364C33.9792 20.1667 33.5381 19.2727 32.95 18.4545L34.1571 17.2727L36.7571 19.8182L39.3571 17.2727L36.7571 14.6818L40.2857 11.2273V15.9091H44V5H32.8571V8.63636H37.6393L34.1107 12.0909L31.4643 9.54545L28.8643 12.0909L31.4643 14.6818L30.2571 15.8636C29.4214 15.2576 28.5083 14.8106 27.5179 14.5227C26.5274 14.2348 25.5214 14.0909 24.5 14.0909C23.4786 14.0909 22.4726 14.2348 21.4821 14.5227C20.4917 14.8106 19.5786 15.2576 18.7429 15.8636L11.3607 8.63636H16.1429V5H5V15.9091H8.71428V11.2273L16.0964 18.4091C15.5083 19.2576 15.0595 20.1591 14.75 21.1136C14.4405 22.0682 14.2857 23.0606 14.2857 24.0909C14.2857 26.5152 15.075 28.6515 16.6536 30.5C18.2321 32.3485 20.2286 33.4848 22.6429 33.9091V37.7273H18.9286V41.3636H22.6429V45H26.3571Z" fill="#899C9C"/>
</svg>
