<svg width="50" height="50" viewBox="0 0 50 50" fill="none" xmlns="http://www.w3.org/2000/svg">
<g clip-path="url(#clip0_769_24)">
<rect x="17.1248" y="30.3799" width="9.91378" height="1.6523" rx="0.826149" transform="rotate(-79.0803 17.1248 30.3799)" fill="#899C9C"/>
<path d="M33.3636 15C32.9886 15 32.6676 14.8644 32.4006 14.5933C32.1335 14.3221 32 13.9962 32 13.6154V7.38462C32 7.00385 32.1335 6.67788 32.4006 6.40673C32.6676 6.13558 32.9886 6 33.3636 6H45.6364C46.0114 6 46.3324 6.13558 46.5994 6.40673C46.8665 6.67788 47 7.00385 47 7.38462V13.6154C47 13.9962 46.8665 14.3221 46.5994 14.5933C46.3324 14.8644 46.0114 15 45.6364 15H33.3636ZM33.3636 7.38462V13.6154H45.6364V7.38462H33.3636ZM38.3068 12.5769C39.1477 12.5769 39.9574 12.4269 40.7358 12.1269C41.5142 11.8269 42.1932 11.3654 42.7727 10.7423C42.8409 11.2269 43.0909 11.5962 43.5227 11.85C43.9545 12.1038 44.4318 12.2308 44.9545 12.2308V8.76923C44.4318 8.76923 43.9545 8.89904 43.5227 9.15865C43.0909 9.41827 42.8409 9.79615 42.7727 10.2923C42.1705 9.69231 41.4858 9.23077 40.7188 8.90769C39.9517 8.58462 39.1477 8.42308 38.3068 8.42308C37.4091 8.42308 36.5455 8.58173 35.7159 8.89904C34.8864 9.21635 34.2159 9.75 33.7045 10.5C34.2159 11.25 34.8864 11.7837 35.7159 12.101C36.5455 12.4183 37.4091 12.5769 38.3068 12.5769Z" fill="#899C9C"/>
<path d="M40.0957 38.4034C38.4931 39.4644 37.101 39.9989 35.9196 40.007C34.7381 40.0152 33.6623 39.9103 32.6924 39.6923C31.9212 39.5148 31.2076 39.3852 30.5515 39.3035C29.8954 39.2218 29.2444 39.3948 28.5986 39.8223C27.5223 40.5349 26.2036 41.1413 24.6426 41.6414C23.0816 42.1416 21.44 42.3511 19.7178 42.27C17.9955 42.1889 16.2885 41.7279 14.5965 40.8871C12.9046 40.0462 11.3896 38.6411 10.0513 36.6716C7.35906 32.7088 6.17633 28.7787 6.50316 24.8813C6.82999 20.9839 8.81126 17.8317 12.447 15.4248C14.1452 14.3005 15.7427 13.5956 17.2393 13.31C18.736 13.0245 20.1543 12.9714 21.4943 13.1507C22.8343 13.3301 24.0943 13.6742 25.2741 14.1833C26.4539 14.6923 27.5841 15.1912 28.6645 15.68C29.2682 15.9683 29.8443 16.2148 30.3926 16.4195C30.9409 16.6241 31.4933 16.783 32.0499 16.8962C34.4351 17.3813 36.3428 17.9245 37.7729 18.5258C39.2031 19.1271 40.6387 20.5161 42.0796 22.6927C43.9798 25.563 44.6684 28.5388 44.1453 31.6201C43.6222 34.7013 42.2723 36.9625 40.0957 38.4034ZM38.1955 35.5331C39.5589 34.6305 40.4091 33.0958 40.7463 30.9289C41.0835 28.7619 40.5711 26.6499 39.2093 24.5929C38.1642 23.0142 37.163 22.0085 36.2057 21.5758C35.2484 21.1431 33.6368 20.6964 31.3708 20.2356C30.5518 20.0897 29.751 19.8544 28.9683 19.5297C28.1857 19.2049 27.3852 18.8662 26.5669 18.5135C24.557 17.608 22.6218 16.9454 20.7614 16.5257C18.9011 16.106 16.763 16.6958 14.3472 18.2951C11.2616 20.3378 9.78144 22.9088 9.9067 26.0081C10.032 29.1074 11.029 32.0165 12.8979 34.7355C13.9827 36.3223 15.2005 37.4082 16.5511 37.9934C17.9018 38.5785 19.2315 38.8593 20.5403 38.8357C21.8492 38.812 23.0533 38.5912 24.1525 38.173C25.2518 37.7549 26.1004 37.3479 26.6984 36.952C27.9183 36.1444 29.093 35.7882 30.2224 35.8834C31.3519 35.9785 32.322 36.1189 33.133 36.3045C34.0234 36.5062 34.8206 36.6063 35.5248 36.6046C36.2289 36.6029 37.1191 36.2457 38.1955 35.5331Z" fill="#899C9C"/>
<rect x="20.2483" y="32.6221" width="9.91378" height="1.6523" rx="0.826149" transform="rotate(-79.0803 20.2483 32.6221)" fill="#899C9C"/>
<rect x="24.3721" y="32.8652" width="9.91378" height="1.6523" rx="0.826149" transform="rotate(-79.0803 24.3721 32.8652)" fill="#899C9C"/>
</g>
<defs>
</defs>
</svg>
