<svg width="50" height="50" viewBox="0 0 50 50" fill="none" xmlns="http://www.w3.org/2000/svg">

<path d="M10.2727 31.2385C9.37273 31.2385 8.60227 30.9185 7.96136 30.2787C7.32045 29.6388 7 28.8696 7 27.971V13.2675C7 12.3689 7.32045 11.5997 7.96136 10.9598C8.60227 10.3199 9.37273 10 10.2727 10H39.7273C40.6273 10 41.3977 10.3199 42.0386 10.9598C42.6795 11.5997 43 12.3689 43 13.2675V27.971C43 28.8696 42.6795 29.6388 42.0386 30.2787C41.3977 30.9185 40.6273 31.2385 39.7273 31.2385H10.2727ZM10.2727 13.2675V27.971H39.7273V13.2675H10.2727ZM10.3955 36.9565L10.2727 34.5059L39.6864 32.9539L39.8091 35.4045L10.3955 36.9565ZM10.2727 41V38.5494H39.7273V41H10.2727ZM22.1364 25.5204C24.1545 25.5204 26.0977 25.1664 27.9659 24.4585C29.8341 23.7505 31.4636 22.6614 32.8545 21.191C33.0182 22.3347 33.6182 23.206 34.6545 23.805C35.6909 24.404 36.8364 24.7036 38.0909 24.7036V16.5349C36.8364 16.5349 35.6909 16.8412 34.6545 17.4539C33.6182 18.0665 33.0182 18.9583 32.8545 20.1291C31.4091 18.7132 29.7659 17.6241 27.925 16.8617C26.0841 16.0993 24.1545 15.718 22.1364 15.718C19.9818 15.718 17.9091 16.0924 15.9182 16.8412C13.9273 17.59 12.3182 18.8494 11.0909 20.6192C12.3182 22.3891 13.9273 23.6484 15.9182 24.3972C17.9091 25.146 19.9818 25.5204 22.1364 25.5204Z" fill="#899C9C"/>
</svg>
