<svg width="50" height="50" viewBox="0 0 50 50" fill="none" xmlns="http://www.w3.org/2000/svg">

<path d="M22.25 42V33.25H19V21C19 19.5417 19.474 18.3021 20.4219 17.2812C21.3698 16.2604 22.5208 15.75 23.875 15.75C25.2292 15.75 26.3802 16.2604 27.3281 17.2812C28.276 18.3021 28.75 19.5417 28.75 21C29.725 21.4375 30.5104 22.1375 31.1062 23.1C31.7021 24.0625 32 25.1125 32 26.25V33.25H27.125V42H22.25ZM23.875 14C22.9812 14 22.2161 13.6573 21.5797 12.9719C20.9432 12.2865 20.625 11.4625 20.625 10.5C20.625 9.5375 20.9432 8.71354 21.5797 8.02812C22.2161 7.34271 22.9812 7 23.875 7C24.7687 7 25.5339 7.34271 26.1703 8.02812C26.8068 8.71354 27.125 9.5375 27.125 10.5C27.125 11.4625 26.8068 12.2865 26.1703 12.9719C25.5339 13.6573 24.7687 14 23.875 14Z" fill="#899C9C"/>
</svg>
