<svg width="50" height="50" viewBox="0 0 50 50" fill="none" xmlns="http://www.w3.org/2000/svg">

<path d="M4 39V10H7.81818V29.3333H23.0909V13.8667H38.3636C40.4636 13.8667 42.2614 14.6239 43.7568 16.1383C45.2523 17.6528 46 19.4733 46 21.6V39H42.1818V33.2H7.81818V39H4ZM15.4545 27.4C13.8636 27.4 12.5114 26.8361 11.3977 25.7083C10.2841 24.5806 9.72727 23.2111 9.72727 21.6C9.72727 19.9889 10.2841 18.6194 11.3977 17.4917C12.5114 16.3639 13.8636 15.8 15.4545 15.8C17.0455 15.8 18.3977 16.3639 19.5114 17.4917C20.625 18.6194 21.1818 19.9889 21.1818 21.6C21.1818 23.2111 20.625 24.5806 19.5114 25.7083C18.3977 26.8361 17.0455 27.4 15.4545 27.4ZM26.9091 29.3333H42.1818V21.6C42.1818 20.5367 41.808 19.6264 41.0602 18.8692C40.3125 18.1119 39.4136 17.7333 38.3636 17.7333H26.9091V29.3333ZM15.4545 23.5333C15.9955 23.5333 16.4489 23.3481 16.8148 22.9775C17.1807 22.6069 17.3636 22.1478 17.3636 21.6C17.3636 21.0522 17.1807 20.5931 16.8148 20.2225C16.4489 19.8519 15.9955 19.6667 15.4545 19.6667C14.9136 19.6667 14.4602 19.8519 14.0943 20.2225C13.7284 20.5931 13.5455 21.0522 13.5455 21.6C13.5455 22.1478 13.7284 22.6069 14.0943 22.9775C14.4602 23.3481 14.9136 23.5333 15.4545 23.5333Z" fill="#899C9C"/>
</svg>
