<svg width="50" height="50" viewBox="0 0 50 50" fill="none" xmlns="http://www.w3.org/2000/svg">

<path d="M29.6667 43C27.1156 43 24.7044 42.5144 22.4333 41.5431C20.1622 40.5719 18.1789 39.246 16.4833 37.5656C14.7878 35.8852 13.45 33.9196 12.47 31.6688C11.49 29.4179 11 27.0283 11 24.5C11 21.9408 11.49 19.5435 12.47 17.3081C13.45 15.0727 14.7878 13.1148 16.4833 11.4344C18.1789 9.75396 20.1622 8.42813 22.4333 7.45688C24.7044 6.48563 27.1156 6 29.6667 6C31.3467 6 32.98 6.21583 34.5667 6.6475C36.1533 7.07917 37.6311 7.69583 39 8.4975C36.1689 10.1317 33.9056 12.344 32.21 15.1344C30.5144 17.9248 29.6667 21.0467 29.6667 24.5C29.6667 27.9533 30.5144 31.0752 32.21 33.8656C33.9056 36.656 36.1689 38.8683 39 40.5025C37.6311 41.3042 36.1533 41.9208 34.5667 42.3525C32.98 42.7842 31.3467 43 29.6667 43ZM29.6667 39.3H30.6467C30.9578 39.3 31.2533 39.2692 31.5333 39.2075C29.76 37.1725 28.3833 34.8985 27.4033 32.3856C26.4233 29.8727 25.9333 27.2442 25.9333 24.5C25.9333 21.7558 26.4233 19.1273 27.4033 16.6144C28.3833 14.1015 29.76 11.8275 31.5333 9.7925C31.2533 9.73083 30.9578 9.7 30.6467 9.7H29.6667C25.5289 9.7 22.0056 11.1415 19.0967 14.0244C16.1878 16.9073 14.7333 20.3992 14.7333 24.5C14.7333 28.6008 16.1878 32.0927 19.0967 34.9756C22.0056 37.8585 25.5289 39.3 29.6667 39.3Z" fill="#899C9C"/>
</svg>
