<svg width="50" height="50" viewBox="0 0 50 50" fill="none" xmlns="http://www.w3.org/2000/svg">

<path d="M7 40V34.5294H34V40H7ZM35.8 40V34.5294H38.5V40H35.8ZM40.3 40V34.5294H43V40H40.3ZM35.8 32.7059V30.3353C35.8 29.15 35.455 28.2458 34.765 27.6228C34.075 26.9998 33.25 26.6882 32.29 26.6882H29.5C27.82 26.6882 26.395 26.0956 25.225 24.9103C24.055 23.725 23.47 22.2814 23.47 20.5794C23.47 18.8775 24.055 17.4338 25.225 16.2485C26.395 15.0632 27.82 14.4706 29.5 14.4706V17.2059C28.6 17.2059 27.82 17.525 27.16 18.1632C26.5 18.8015 26.17 19.6069 26.17 20.5794C26.17 21.552 26.5 22.3574 27.16 22.9956C27.82 23.6338 28.6 23.9529 29.5 23.9529H32.29C33.97 23.9529 35.425 24.5 36.655 25.5941C37.885 26.6882 38.5 28.0559 38.5 29.6971V32.7059H35.8ZM40.3 32.7059V28.6029C40.3 26.5971 39.61 24.8647 38.23 23.4059C36.85 21.9471 35.14 21.2176 33.1 21.2176V18.4824C34 18.4824 34.78 18.148 35.44 17.4794C36.1 16.8108 36.43 16.0206 36.43 15.1088C36.43 14.1971 36.1 13.4069 35.44 12.7382C34.78 12.0696 34 11.7353 33.1 11.7353V9C34.78 9 36.205 9.59265 37.375 10.7779C38.545 11.9632 39.13 13.4069 39.13 15.1088C39.13 15.9902 38.965 16.788 38.635 17.5022C38.305 18.2164 37.87 18.8775 37.33 19.4853C39.01 20.2755 40.375 21.4912 41.425 23.1324C42.475 24.7735 43 26.5971 43 28.6029V32.7059H40.3Z" fill="#899C9C"/>
</svg>
