<svg width="50" height="50" viewBox="0 0 50 50" fill="none" xmlns="http://www.w3.org/2000/svg">

<path d="M25 41C24.46 41 23.9425 40.9007 23.4475 40.7021C22.9525 40.5035 22.51 40.2056 22.12 39.8083L10.735 28.1667H15.82L24.685 37.1958C24.745 37.2569 24.7975 37.2951 24.8425 37.3104C24.8875 37.3257 24.94 37.3333 25 37.3333C25.06 37.3333 25.1125 37.3257 25.1575 37.3104C25.2025 37.2951 25.255 37.2569 25.315 37.1958L37.33 24.9125C38.02 24.2097 38.545 23.3771 38.905 22.4146C39.265 21.4521 39.445 20.4667 39.445 19.4583C39.385 17.35 38.695 15.5396 37.375 14.0271C36.055 12.5146 34.405 11.7583 32.425 11.7583C31.495 11.7583 30.6025 11.9417 29.7475 12.3083C28.8925 12.675 28.15 13.2097 27.52 13.9125L26.305 15.2417C26.155 15.425 25.96 15.5701 25.72 15.6771C25.48 15.784 25.24 15.8375 25 15.8375C24.76 15.8375 24.52 15.784 24.28 15.6771C24.04 15.5701 23.83 15.425 23.65 15.2417L22.435 13.9125C21.805 13.2097 21.07 12.6597 20.23 12.2625C19.39 11.8653 18.49 11.6667 17.53 11.6667C15.91 11.6667 14.5075 12.1938 13.3225 13.2479C12.1375 14.3021 11.335 15.6083 10.915 17.1667H7.225C7.735 14.5694 8.9275 12.3924 10.8025 10.6354C12.6775 8.87847 14.92 8 17.53 8C18.97 8 20.3275 8.29028 21.6025 8.87083C22.8775 9.45139 24.01 10.2611 25 11.3C25.96 10.2611 27.0775 9.45139 28.3525 8.87083C29.6275 8.29028 30.985 8 32.425 8C35.425 8 37.9375 9.13056 39.9625 11.3917C41.9875 13.6528 43 16.3417 43 19.4583C43 20.9556 42.745 22.3917 42.235 23.7667C41.725 25.1417 40.96 26.3639 39.94 27.4333L27.835 39.8083C27.445 40.2056 27.01 40.5035 26.53 40.7021C26.05 40.9007 25.54 41 25 41ZM24.775 24.5H7V20.8333H31.975C32.485 20.8333 32.9125 20.6576 33.2575 20.3063C33.6025 19.9549 33.775 19.5194 33.775 19C33.775 18.4806 33.6025 18.0451 33.2575 17.6938C32.9125 17.3424 32.485 17.1667 31.975 17.1667C31.555 17.1667 31.18 17.2813 30.85 17.5104C30.52 17.7396 30.31 18.0681 30.22 18.4958L26.755 17.5333C27.085 16.3417 27.73 15.3715 28.69 14.6229C29.65 13.8743 30.745 13.5 31.975 13.5C33.475 13.5 34.75 14.0347 35.8 15.1042C36.85 16.1736 37.375 17.4722 37.375 19C37.375 20.5278 36.85 21.8264 35.8 22.8958C34.75 23.9653 33.475 24.5 31.975 24.5H29.86C29.95 24.8056 30.025 25.1035 30.085 25.3938C30.145 25.684 30.175 25.9972 30.175 26.3333C30.175 27.8611 29.65 29.1597 28.6 30.2292C27.55 31.2986 26.275 31.8333 24.775 31.8333C23.545 31.8333 22.45 31.459 21.49 30.7104C20.53 29.9618 19.885 28.9917 19.555 27.8L23.02 26.8375C23.11 27.2653 23.32 27.5938 23.65 27.8229C23.98 28.0521 24.355 28.1667 24.775 28.1667C25.285 28.1667 25.7125 27.991 26.0575 27.6396C26.4025 27.2882 26.575 26.8528 26.575 26.3333C26.575 25.8139 26.4025 25.3785 26.0575 25.0271C25.7125 24.6757 25.285 24.5 24.775 24.5Z" fill="#899C9C"/>
</svg>
