<svg width="50" height="50" viewBox="0 0 50 50" fill="none" xmlns="http://www.w3.org/2000/svg">

<path d="M24.6667 40.9044C21.4167 40.9044 18.6597 39.8008 16.3958 37.5935C14.1319 35.3862 13 32.6982 13 29.5294C13 26.9836 13.7708 24.7018 15.3125 22.6841C16.8542 20.6664 18.875 19.3055 21.375 18.6013C20.8194 18.4659 20.2778 18.2695 19.75 18.0122C19.2222 17.7549 18.75 17.4232 18.3333 17.0169C17.4167 16.1232 16.8264 15.0601 16.5625 13.8279C16.2986 12.5956 16.2361 11.343 16.375 10.07C17.6806 9.93463 18.9653 9.99556 20.2292 10.2529C21.4931 10.5101 22.5833 11.0857 23.5 11.9794C24.1389 12.6023 24.6042 13.3065 24.8958 14.0919C25.1875 14.8773 25.375 15.7034 25.4583 16.57C25.8194 15.7305 26.2569 14.9383 26.7708 14.1935C27.2847 13.4487 27.8611 12.7648 28.5 12.1419C28.8056 11.844 29.1944 11.695 29.6667 11.695C30.1389 11.695 30.5278 11.844 30.8333 12.1419C31.1389 12.4398 31.2917 12.819 31.2917 13.2794C31.2917 13.7398 31.1389 14.119 30.8333 14.4169C30.2222 15.0128 29.6806 15.6695 29.2083 16.3872C28.7361 17.1049 28.3889 17.87 28.1667 18.6825C30.6111 19.4409 32.5833 20.8154 34.0833 22.806C35.5833 24.7966 36.3333 27.0378 36.3333 29.5294C36.3333 32.6982 35.2014 35.3862 32.9375 37.5935C30.6736 39.8008 27.9167 40.9044 24.6667 40.9044ZM24.6667 37.6544C26.9722 37.6544 28.9375 36.8622 30.5625 35.2779C32.1875 33.6935 33 31.7773 33 29.5294C33 27.2815 32.1875 25.3654 30.5625 23.781C28.9375 22.1966 26.9722 21.4044 24.6667 21.4044C22.3611 21.4044 20.3958 22.1966 18.7708 23.781C17.1458 25.3654 16.3333 27.2815 16.3333 29.5294C16.3333 31.7773 17.1458 33.6935 18.7708 35.2779C20.3958 36.8622 22.3611 37.6544 24.6667 37.6544Z" fill="#899C9C"/>
</svg>
