<svg width="50" height="50" viewBox="0 0 50 50" fill="none" xmlns="http://www.w3.org/2000/svg">

<path d="M31.75 41.3333C29.0417 41.3333 26.7396 40.3611 24.8437 38.4167C22.9479 36.4722 22 34.1111 22 31.3333C22 28.5556 22.9479 26.1944 24.8437 24.25C26.7396 22.3056 29.0417 21.3333 31.75 21.3333C34.4583 21.3333 36.7604 22.3056 38.6562 24.25C40.5521 26.1944 41.5 28.5556 41.5 31.3333C41.5 34.1111 40.5521 36.4722 38.6562 38.4167C36.7604 40.3611 34.4583 41.3333 31.75 41.3333ZM31.75 38C33.5375 38 35.0677 37.3472 36.3406 36.0417C37.6135 34.7361 38.25 33.1667 38.25 31.3333C38.25 29.5 37.6135 27.9306 36.3406 26.625C35.0677 25.3194 33.5375 24.6667 31.75 24.6667C29.9625 24.6667 28.4323 25.3194 27.1594 26.625C25.8865 27.9306 25.25 29.5 25.25 31.3333C25.25 33.1667 25.8865 34.7361 27.1594 36.0417C28.4323 37.3472 29.9625 38 31.75 38ZM12.25 38C11.3562 38 10.5911 37.6736 9.95469 37.0208C9.31823 36.3681 9 35.5833 9 34.6667V22C9 21.7778 9.02031 21.5556 9.06094 21.3333C9.10156 21.1111 9.1625 20.8889 9.24375 20.6667L12.4937 13H12.25C11.7896 13 11.4036 12.8403 11.0922 12.5208C10.7807 12.2014 10.625 11.8056 10.625 11.3333V9.66667C10.625 9.19444 10.7807 8.79861 11.0922 8.47917C11.4036 8.15972 11.7896 8 12.25 8H23.625C24.0854 8 24.4714 8.15972 24.7828 8.47917C25.0943 8.79861 25.25 9.19444 25.25 9.66667V11.3333C25.25 11.8056 25.0943 12.2014 24.7828 12.5208C24.4714 12.8403 24.0854 13 23.625 13H23.3812L26.0625 19.3333C25.5479 19.6111 25.0604 19.9028 24.6 20.2083C24.1396 20.5139 23.7062 20.8611 23.3 21.25L19.8875 13H15.9875L12.25 22V34.6667H19.1562C19.2917 35.25 19.4745 35.8264 19.7047 36.3958C19.9349 36.9653 20.2125 37.5 20.5375 38H12.25ZM31.75 19.6667C30.6125 19.6667 29.651 19.2639 28.8656 18.4583C28.0802 17.6528 27.6875 16.6667 27.6875 15.5C27.6875 14.3333 28.0802 13.3472 28.8656 12.5417C29.651 11.7361 30.6125 11.3333 31.75 11.3333V19.6667C31.75 18.5 32.1427 17.5139 32.9281 16.7083C33.7135 15.9028 34.675 15.5 35.8125 15.5C36.95 15.5 37.9115 15.9028 38.6969 16.7083C39.4823 17.5139 39.875 18.5 39.875 19.6667H31.75Z" fill="#899C9C"/>
</svg>
