<svg width="50" height="50" viewBox="0 0 50 50" fill="none" xmlns="http://www.w3.org/2000/svg">
    <path d="M24.7185 8.28662C15.6481 8.28662 8.28662 15.6481 8.28662 24.7185C8.28662 33.7889 15.6481 41.1504 24.7185 41.1504C33.7889 41.1504 41.1504 33.7889 41.1504 24.7185C41.1504 15.6481 33.7889 8.28662 24.7185 8.28662ZM24.7185 37.864C17.472 37.864 11.573 31.965 11.573 24.7185C11.573 17.472 17.472 11.573 24.7185 11.573C31.965 11.573 37.864 17.472 37.864 24.7185C37.864 31.965 31.965 37.864 24.7185 37.864ZM32.2607 17.4556L21.4321 28.2842L17.1763 24.0448L14.8594 26.3617L21.4321 32.9345L34.5776 19.7889L32.2607 17.4556Z" fill="#899C9C"/>
</svg>
